<svg xmlns="http://www.w3.org/2000/svg" xmlns:xlink="http://www.w3.org/1999/xlink" viewBox="0 0 103.19 110.89"><defs><style>.cls-1{fill-rule:evenodd;fill:url(#linear-gradient);}</style><linearGradient id="linear-gradient" x1="-12.96" y1="126.72" x2="118.06" y2="19.64" gradientUnits="userSpaceOnUse"><stop offset="0.01" stop-color="#f24e22"/><stop offset="1" stop-color="#ff9700"/></linearGradient></defs><g id="Layer_2" data-name="Layer 2"><g id="Layer_1-2" data-name="Layer 1"><path class="cls-1" d="M51.68,21.72c-.75.87-31.55,67.25-31.83,68.52.55.15,1-.19,1.38-.39L37.49,82c5.65-2.74,11.31-5.44,16.93-8.22a6.52,6.52,0,0,1,8.14,1.69,6.32,6.32,0,0,1-1.87,9.26c-.87.49-1.79.9-2.7,1.34L9.66,109.47a6.92,6.92,0,0,1-4.6.8,6.23,6.23,0,0,1-4.5-8.73C1.8,98.66,3.18,95.84,4.5,93q15.6-33.7,31.23-67.42c3.32-7.17,6.66-14.34,10-21.52A6.46,6.46,0,0,1,49.8.27,6.26,6.26,0,0,1,57.34,3.7c1,2.19,2,4.4,3.06,6.61l41.93,91A7.09,7.09,0,0,1,103,106a6.27,6.27,0,0,1-11.8,1.27c-1.38-2.91-2.71-5.85-4.06-8.77Q69.76,60.71,52.33,22.93C52.15,22.53,51.91,22.16,51.68,21.72Z"/></g></g></svg>